<svg  xmlns="http://www.w3.org/2000/svg" xmlns:xlink="http://www.w3.org/1999/xlink" width="873" height="300" viewBox="0 0 897 324"><path transform="translate(0 100)" d="M52.9785,-69.0918L52.9785,-58.0078L79.5898,-58.0078Q82.8125,-57.9102 86.7188,-58.5938Q85.9863,-55.0781 86.084,-51.8066L86.084,-21.7773Q85.9863,-18.6035 86.7188,-15.625L79.8828,-15.625Q80.6152,-18.6035 80.5176,-20.8984L52.9785,-20.8984L52.9785,6.49414Q52.8809,10.6934 53.6133,14.502L46.582,14.502Q47.3145,10.8887 47.2168,6.68945L47.2168,-20.8984L20.0195,-20.8984Q19.9219,-17.4805 20.6055,-14.0137L13.8184,-14.0137Q14.502,-17.5781 14.4043,-21.2891L14.4043,-52.002Q14.502,-54.8828 13.8184,-58.5938Q18.0176,-57.9102 20.9961,-58.0078L47.2168,-58.0078L47.2168,-69.3848Q47.3145,-73.3887 46.582,-77.7832L54.1992,-76.8066Q55.3223,-76.709 55.4199,-76.3184Q55.5176,-76.123 54.4922,-75.1953Q52.7832,-74.2188 52.9785,-69.0918ZM47.2168,-52.7832L20.0195,-52.7832L20.0195,-26.123L47.2168,-26.123L47.2168,-52.7832ZM52.9785,-52.7832L52.9785,-26.123L80.5176,-26.123L80.5176,-52.7832L52.9785,-52.7832Z"></path><path transform="translate(100 100)" d="M46.582,-15.2832Q33.2031,-30.9082 24.9023,-53.125L14.3066,-53.125Q11.9141,-53.2227 7.8125,-52.4902L7.8125,-58.8867Q11.084,-58.2031 14.1113,-58.3008L86.6211,-58.3008Q89.502,-58.2031 92.9199,-58.8867L92.9199,-52.4902Q89.502,-53.2227 86.5234,-53.125L72.8027,-53.125Q65.918,-30.5176 54.9805,-15.4785Q74.9023,0.78125 95.7031,4.49219Q90.918,7.08008 89.209,10.9863Q65.4785,1.41602 50.9766,-10.6934Q36.6211,2.58789 12.793,13.2812Q10.1074,9.17969 6.49414,6.88477Q31.4941,0.195312 46.582,-15.2832ZM37.6953,-73.6816L42.0898,-78.2227Q49.8047,-72.3145 58.7891,-63.916L54.1016,-59.082Q44.8242,-69.0918 37.6953,-73.6816ZM50.7812,-20.3125Q60.8887,-33.8867 66.0156,-53.125L31.6895,-53.125Q38.1836,-35.3027 50.7812,-20.3125Z"></path><path transform="translate(200 100)" d="M33.3984,-34.8145Q26.9043,-46.0938 20.8008,-54.0039L25.293,-56.7871Q31.3965,-48.0957 35.6934,-40.918Q38.1836,-49.2188 39.4043,-57.7148L45.9961,-55.7129Q47.1191,-55.4199 47.1191,-54.9805Q47.1191,-54.6875 46.0938,-53.9062Q44.8242,-53.125 43.7988,-49.6094Q41.4062,-41.6992 39.209,-35.5957Q41.3086,-31.5918 46.582,-21.6797Q48.877,-17.3828 49.9023,-15.4785L44.3848,-12.0117Q40.4785,-21.4844 36.7188,-29.1992Q32.0801,-17.5781 25.7812,-6.98242Q23.3887,-8.59375 18.7988,-9.7168Q27.9785,-19.3848 33.3984,-34.8145ZM47.4121,-8.59375Q55.8105,-17.2852 62.4023,-32.3242Q54.8828,-45.7031 49.9023,-53.3203L55.3223,-55.9082Q60.6934,-45.9961 64.7949,-37.9883Q68.9941,-48.877 70.1172,-58.0078L76.6113,-55.2246Q77.5879,-54.6875 77.5879,-54.2969Q77.5879,-53.9062 76.5137,-53.3203Q74.9023,-52.3926 73.584,-48.1934Q70.9961,-40.3809 68.1152,-32.4219Q73.584,-22.3145 79.1992,-11.377L73.584,-7.71484Q70.2148,-17.2852 65.3809,-26.6113Q60.6934,-16.3086 54.6875,-6.29883Q50.4883,-7.91016 47.4121,-8.59375ZM11.6211,-73.877Q17.3828,-73.3887 21.1914,-73.291L78.7109,-73.291Q82.9102,-73.3887 88.1836,-73.877Q87.6953,-68.7012 87.5977,-65.2832L87.5977,2.58789Q87.793,3.22266 87.793,3.80859Q87.793,9.57031 69.5801,11.377Q69.2871,7.51953 66.4062,3.80859Q72.0215,4.3457 75.0977,4.3457Q78.0273,4.3457 79.3945,3.90625Q82.4219,3.41797 82.1777,-0.292969L82.1777,-68.3105L17.5781,-68.3105L17.5781,2.00195Q17.6758,6.00586 18.2129,11.084L11.6211,11.084Q12.1094,5.9082 12.207,2.00195L12.207,-64.502Q12.1094,-68.5059 11.6211,-73.877Z"></path><path transform="translate(300 100)" d="M43.7988,-77.9785Q51.8066,-73.291 58.8867,-68.0176L55.5176,-63.8184L82.6172,-63.8184Q86.084,-63.8184 90.8203,-64.4043Q90.1855,-61.084 90.1855,-56.5918L90.1855,-52.7832Q90.1855,-49.1211 90.8203,-44.9219L83.9844,-44.9219Q84.6191,-48.6816 84.6191,-52.7832L84.6191,-58.7891L17.0898,-58.7891L17.0898,-52.4902Q17.0898,-47.6074 17.6758,-44.5801L10.8887,-44.5801Q11.5234,-48.877 11.5234,-52.4902L11.5234,-56.2988Q11.5234,-60.2051 10.8887,-64.4043Q13.7207,-63.8184 19.0918,-63.8184L53.3203,-63.8184Q44.2871,-69.9219 39.5996,-72.6074L43.7988,-77.9785ZM87.207,-17.3828L53.5156,-17.3828L53.5156,5.17578Q53.7109,10.3027 49.3164,12.207Q45.1172,14.3066 33.1055,14.8926Q31.9824,9.81445 29.8828,6.68945Q36.1816,7.56836 40.2344,7.56836Q42.9199,7.56836 44.2871,7.17773Q47.998,6.39648 47.9004,2.19727L47.9004,-17.3828L13.8184,-17.3828Q9.7168,-17.3828 5.41992,-16.7969L5.41992,-22.998Q9.17969,-22.4121 13.8184,-22.4121L47.9004,-22.4121Q47.8027,-27.7832 47.3145,-30.6152Q56.5918,-34.7168 62.9883,-40.918L29.5898,-40.918Q26.9043,-40.918 21.6797,-40.2832L21.6797,-46.4844Q25.3906,-45.8984 29.5898,-45.8984L68.8965,-45.8984Q71.6797,-45.8984 77.002,-46.4844Q66.6992,-35.791 53.5156,-27.2949L53.5156,-22.4121L87.207,-22.4121Q91.0156,-22.4121 95.6055,-22.998L95.6055,-16.7969Q91.0156,-17.3828 87.207,-17.3828Z"></path><path transform="translate(400 100)" d="M25.5859,-44.0918Q25.0977,-39.4043 25,-35.0098L24.2188,-0Q34.1797,-7.08008 40.2832,-13.2812L39.8926,-4.39453Q22.4121,8.39844 20.8984,11.084L16.0156,5.07812Q18.2129,3.22266 18.3105,-0.683594L19.2871,-38.4766L11.8164,-38.4766Q8.59375,-38.623 3.61328,-37.8906L3.61328,-44.0918Q8.30078,-43.4082 11.8164,-43.5059L17.4805,-43.5059Q20.9961,-43.4082 25.5859,-44.0918ZM8.88672,-71.0938L12.9883,-75.9766Q21.6797,-70.3125 31.8848,-61.8164L27.7832,-56.3965Q18.7012,-65.0879 8.88672,-71.0938ZM62.207,-79.0039L70.4102,-77.9785Q71.6797,-77.7832 71.6797,-77.0996Q71.6797,-76.3184 70.4102,-75.293Q68.6035,-73.6816 68.6035,-68.7012L68.6035,-45.0195L89.502,-45.0195Q91.6016,-45.0195 96.1914,-45.6055L96.1914,-39.209Q91.8945,-39.7949 89.8926,-39.7949L68.6035,-39.7949L68.6035,6.68945Q68.5059,11.9141 69.1895,16.2109L62.207,16.2109Q62.793,10.8887 62.793,6.68945L62.793,-39.7949L41.6016,-39.7949Q38.623,-39.8926 34.6191,-39.209L34.6191,-45.6055Q38.2812,-44.9219 41.5039,-45.0195L62.793,-45.0195L62.793,-67.8223Q62.8906,-73.291 62.207,-79.0039Z"></path><path transform="translate(500 100)" d="M6.29883,-48.3887Q13.7207,-48.584 13.916,-48.584L21.9238,-49.5117Q20.8984,-58.1055 20.4102,-66.9922Q20.1172,-70.9961 19.4824,-75.6836L27.002,-74.8047Q28.5156,-74.707 28.6133,-74.3164Q28.7109,-74.0234 27.5879,-73.0957Q26.123,-72.2168 26.2207,-67.9199Q26.123,-58.2031 27.1973,-50.0977L50,-52.7832Q52.6855,-53.125 57.1777,-54.2969Q57.5195,-50.9766 58.1055,-48.1934Q56.6895,-48.0957 54.4922,-47.998Q52.0996,-47.9004 50.293,-47.8027L27.8809,-45.4102Q29.2969,-29.1016 34.8145,-15.1855Q43.2129,-25.3906 47.0215,-39.0137L53.6133,-36.2793Q55.1758,-35.5957 55.1758,-35.1074Q55.3223,-34.6191 53.8086,-33.9844Q51.8066,-33.3984 50.5859,-30.8105Q43.6035,-17.0898 37.5,-9.81445Q40.918,-1.70898 48.584,4.98047Q50.293,6.5918 51.6113,6.5918Q53.2715,6.5918 54.2969,3.90625Q56.0059,0.390625 56.2988,-5.32227Q58.2031,-3.51562 63.2812,-1.2207Q61.7188,3.61328 59.8145,7.61719Q57.2754,13.2324 53.125,13.2324Q50.1953,13.2324 46.3867,10.3027Q38.2812,4.00391 33.5938,-4.98047Q26.2207,2.88086 14.4043,11.2793Q11.1816,8.20312 7.32422,6.29883Q19.3848,2.58789 30.9082,-10.3027Q25.1953,-24.2188 22.5098,-44.6777L13.916,-43.4082Q13.7207,-43.4082 7.08008,-41.8945Q6.68945,-46.4844 6.29883,-48.3887ZM48.291,-57.4219Q41.4062,-64.1113 35.2051,-68.8965L39.0137,-73.0957Q44.4824,-68.7988 52.0996,-61.9141L48.291,-57.4219ZM70.5078,-12.1094L63.7207,-12.1094Q64.3066,-17.9199 64.3066,-20.4102L64.3066,-55.0781Q64.3066,-57.6172 63.7207,-64.5996L70.9961,-63.3789Q72.2168,-63.1836 72.3145,-62.6953Q72.5098,-62.3047 71.6797,-61.5234Q70.0195,-59.6191 69.9219,-56.0059L69.9219,-20.6055Q70.0195,-17.5781 70.5078,-12.1094ZM72.5098,14.8926Q71.0938,9.91211 68.6035,6.49414Q73.291,7.37305 76.7578,7.37305Q84.5703,7.37305 83.9844,2.39258L83.9844,-67.8223Q83.9844,-70.8984 83.3984,-77.2949L90.8203,-76.123Q92.0898,-75.8789 92.2852,-75.3906Q92.4805,-75 91.5039,-74.2188Q89.7949,-72.6074 89.7949,-68.1152L89.7949,3.90625Q89.9902,9.81445 86.7188,11.6211Q83.6914,13.7207 72.5098,14.8926Z"></path><path transform="translate(0 200)" d="M28.9062,-59.2773L28.9062,3.90625L22.4121,3.90625L22.4121,-59.2773L0.976562,-59.2773L0.976562,-64.8926L50.7812,-64.8926L50.7812,-59.2773L28.9062,-59.2773Z"></path><path transform="translate(52 200)" d="M41.3086,3.90625L41.3086,-25.1953Q41.3086,-33.8867 38.3301,-37.7686Q35.3516,-41.6504 29.0527,-41.6504Q22.3633,-41.6504 18.3105,-36.8164Q14.2578,-31.9824 14.2578,-23.6816L14.2578,3.90625L8.05664,3.90625L8.05664,-67.041L14.2578,-67.041L14.2578,-47.2656Q14.2578,-44.5801 14.1846,-41.9434Q14.1113,-39.3066 14.0137,-36.6211L14.209,-36.6211Q16.9434,-41.9434 20.8984,-44.3604Q24.8535,-46.7773 30.7129,-46.7773Q39.2578,-46.7773 43.3838,-41.8701Q47.5098,-36.9629 47.5098,-26.709L47.5098,3.90625L41.3086,3.90625Z"></path><path transform="translate(107 200)" d="M11.3281,-19.9707Q11.3281,-10.6445 15.4541,-5.44434Q19.5801,-0.244141 26.9531,-0.244141Q31.8848,-0.244141 35.4248,-2.27051Q38.9648,-4.29688 41.5527,-9.08203L46.4844,-6.39648Q43.0664,-0.292969 38.2812,2.29492Q33.4961,4.88281 26.8066,4.88281Q16.2109,4.88281 10.5469,-1.85547Q4.88281,-8.59375 4.88281,-21.3379Q4.88281,-29.4922 7.56836,-35.2051Q10.2539,-40.918 15.1611,-43.8477Q20.0684,-46.7773 26.6113,-46.7773Q36.7676,-46.7773 42.1387,-40.2832Q47.5098,-33.7891 47.5098,-21.6309L47.5098,-19.9707L11.3281,-19.9707ZM26.3672,-41.6504Q19.5312,-41.6504 15.6738,-37.3779Q11.8164,-33.1055 11.4258,-24.8047L41.0156,-24.8047Q40.1367,-41.6504 26.3672,-41.6504Z"></path><path transform="translate(158 200)" d=""></path><path transform="translate(185 200)" d="M50.8789,-44.6289Q50.8789,-38.5254 48.0957,-33.7646Q45.3125,-29.0039 40.0635,-26.3672Q34.8145,-23.7305 27.6855,-23.7305L15.9668,-23.7305L15.9668,3.90625L9.42383,3.90625L9.42383,-64.8926L27.2949,-64.8926Q38.4766,-64.8926 44.6777,-59.5215Q50.8789,-54.1504 50.8789,-44.6289ZM44.2383,-44.5312Q44.2383,-51.6602 39.7705,-55.6396Q35.3027,-59.6191 26.4648,-59.6191L15.9668,-59.6191L15.9668,-28.9062L26.9043,-28.9062Q35.2051,-28.9062 39.7217,-32.9834Q44.2383,-37.0605 44.2383,-44.5312Z"></path><path transform="translate(240 200)" d="M8.25195,3.90625L8.25195,-33.4961Q8.25195,-37.4512 7.8125,-45.8008L13.5742,-45.8008Q14.1113,-40.4297 14.1113,-34.5215L14.3066,-34.5215Q16.3574,-41.1133 19.7266,-43.9453Q23.0957,-46.7773 28.418,-46.7773Q30.4688,-46.7773 32.2266,-46.3379L32.2266,-40.5762Q30.3711,-41.0156 27.5879,-41.0156Q21.4355,-41.0156 17.9688,-35.7666Q14.502,-30.5176 14.502,-21.3379L14.502,3.90625L8.25195,3.90625Z"></path><path transform="translate(274 200)" d="M52.4902,-20.9961Q52.4902,-8.88672 46.167,-2.00195Q39.8438,4.88281 28.418,4.88281Q17.4316,4.88281 11.1328,-2.0752Q4.83398,-9.0332 4.83398,-20.9961Q4.83398,-33.1543 11.1328,-39.9658Q17.4316,-46.7773 28.7109,-46.7773Q40.332,-46.7773 46.4111,-40.1611Q52.4902,-33.5449 52.4902,-20.9961ZM45.9961,-20.9961Q45.9961,-31.25 41.6992,-36.4502Q37.4023,-41.6504 28.9062,-41.6504Q20.2637,-41.6504 15.7959,-36.3281Q11.3281,-31.0059 11.3281,-20.9961Q11.3281,-11.1328 15.7471,-5.68848Q20.166,-0.244141 28.3203,-0.244141Q37.1094,-0.244141 41.5527,-5.51758Q45.9961,-10.791 45.9961,-20.9961Z"></path><path transform="translate(331 200)" d="M7.95898,-59.5215L7.95898,-67.0898L14.1602,-67.0898L14.1602,-59.5215L7.95898,-59.5215ZM14.1602,9.13086Q14.1602,16.6504 11.6211,19.9219Q9.08203,23.1934 3.56445,23.1934Q0.683594,23.1934 -1.12305,22.8516L-1.12305,17.7246Q0.488281,18.0176 1.85547,18.0176Q5.17578,18.0176 6.56738,16.0645Q7.95898,14.1113 7.95898,8.98438L7.95898,-45.8008L14.1602,-45.8008L14.1602,9.13086Z"></path><path transform="translate(353 200)" d="M11.3281,-19.9707Q11.3281,-10.6445 15.4541,-5.44434Q19.5801,-0.244141 26.9531,-0.244141Q31.8848,-0.244141 35.4248,-2.27051Q38.9648,-4.29688 41.5527,-9.08203L46.4844,-6.39648Q43.0664,-0.292969 38.2812,2.29492Q33.4961,4.88281 26.8066,4.88281Q16.2109,4.88281 10.5469,-1.85547Q4.88281,-8.59375 4.88281,-21.3379Q4.88281,-29.4922 7.56836,-35.2051Q10.2539,-40.918 15.1611,-43.8477Q20.0684,-46.7773 26.6113,-46.7773Q36.7676,-46.7773 42.1387,-40.2832Q47.5098,-33.7891 47.5098,-21.6309L47.5098,-19.9707L11.3281,-19.9707ZM26.3672,-41.6504Q19.5312,-41.6504 15.6738,-37.3779Q11.8164,-33.1055 11.4258,-24.8047L41.0156,-24.8047Q40.1367,-41.6504 26.3672,-41.6504Z"></path><path transform="translate(404 200)" d="M25.1465,4.88281Q15.2344,4.88281 10.0586,-1.68457Q4.88281,-8.25195 4.88281,-20.752Q4.88281,-33.2031 10.2783,-39.9902Q15.6738,-46.7773 25.5859,-46.7773Q33.4473,-46.7773 37.915,-43.5547Q42.3828,-40.332 43.5547,-33.4473L37.1582,-32.7148Q36.2305,-37.3535 33.3984,-39.502Q30.5664,-41.6504 25.6348,-41.6504Q11.1816,-41.6504 11.1816,-20.9961Q11.1816,-0.244141 25.293,-0.244141Q35.6934,-0.244141 37.4023,-9.7168L43.5547,-8.83789Q40.9668,4.88281 25.1465,4.88281Z"></path><path transform="translate(449 200)" d="M20.6055,4.6875Q15.1855,4.6875 12.3779,1.80664Q9.57031,-1.07422 9.57031,-6.68945L9.57031,-40.6738L2.24609,-40.6738L2.24609,-45.8008L9.66797,-45.8008L11.3281,-57.2754L15.8203,-57.2754L15.8203,-45.8008L29.0527,-45.8008L29.0527,-40.6738L15.8203,-40.6738L15.8203,-7.8125Q15.8203,-4.29688 17.2363,-2.34375Q18.6523,-0.390625 22.3145,-0.390625Q25.4883,-0.390625 29.6387,-1.26953L29.6387,3.56445Q25.3906,4.6875 20.6055,4.6875Z"></path><path transform="translate(481 200)" d=""></path><path transform="translate(508 200)" d="M9.0332,3.90625L9.0332,-64.8926L45.2637,-64.8926L45.2637,-59.375L15.5762,-59.375L15.5762,-34.1797L43.2129,-34.1797L43.2129,-28.7598L15.5762,-28.7598L15.5762,3.90625L9.0332,3.90625Z"></path><path transform="translate(556 200)" d="M52.4902,-20.9961Q52.4902,-8.88672 46.167,-2.00195Q39.8438,4.88281 28.418,4.88281Q17.4316,4.88281 11.1328,-2.0752Q4.83398,-9.0332 4.83398,-20.9961Q4.83398,-33.1543 11.1328,-39.9658Q17.4316,-46.7773 28.7109,-46.7773Q40.332,-46.7773 46.4111,-40.1611Q52.4902,-33.5449 52.4902,-20.9961ZM45.9961,-20.9961Q45.9961,-31.25 41.6992,-36.4502Q37.4023,-41.6504 28.9062,-41.6504Q20.2637,-41.6504 15.7959,-36.3281Q11.3281,-31.0059 11.3281,-20.9961Q11.3281,-11.1328 15.7471,-5.68848Q20.166,-0.244141 28.3203,-0.244141Q37.1094,-0.244141 41.5527,-5.51758Q45.9961,-10.791 45.9961,-20.9961Z"></path><path transform="translate(613 200)" d="M8.25195,3.90625L8.25195,-33.4961Q8.25195,-37.4512 7.8125,-45.8008L13.5742,-45.8008Q14.1113,-40.4297 14.1113,-34.5215L14.3066,-34.5215Q16.3574,-41.1133 19.7266,-43.9453Q23.0957,-46.7773 28.418,-46.7773Q30.4688,-46.7773 32.2266,-46.3379L32.2266,-40.5762Q30.3711,-41.0156 27.5879,-41.0156Q21.4355,-41.0156 17.9688,-35.7666Q14.502,-30.5176 14.502,-21.3379L14.502,3.90625L8.25195,3.90625Z"></path><path transform="translate(647 200)" d=""></path><path transform="translate(674 200)" d="M20.9473,3.90625L1.61133,-64.8926L8.49609,-64.8926L20.2148,-21.6309Q23.0957,-10.9375 24.7559,-3.32031Q26.0742,-9.57031 29.8828,-22.3633L42.7734,-64.8926L48.6816,-64.8926L61.2305,-22.4121Q64.4531,-11.5723 66.1621,-3.32031Q68.0176,-12.0117 70.7031,-21.6309L82.959,-64.8926L89.7949,-64.8926L69.6289,3.90625L62.8906,3.90625L49.4629,-41.5527Q47.0215,-50 45.6055,-57.4707Q44.4336,-51.2207 41.6504,-41.6016L27.9297,3.90625L20.9473,3.90625Z"></path><path transform="translate(765 200)" d="M11.3281,-19.9707Q11.3281,-10.6445 15.4541,-5.44434Q19.5801,-0.244141 26.9531,-0.244141Q31.8848,-0.244141 35.4248,-2.27051Q38.9648,-4.29688 41.5527,-9.08203L46.4844,-6.39648Q43.0664,-0.292969 38.2812,2.29492Q33.4961,4.88281 26.8066,4.88281Q16.2109,4.88281 10.5469,-1.85547Q4.88281,-8.59375 4.88281,-21.3379Q4.88281,-29.4922 7.56836,-35.2051Q10.2539,-40.918 15.1611,-43.8477Q20.0684,-46.7773 26.6113,-46.7773Q36.7676,-46.7773 42.1387,-40.2832Q47.5098,-33.7891 47.5098,-21.6309L47.5098,-19.9707L11.3281,-19.9707ZM26.3672,-41.6504Q19.5312,-41.6504 15.6738,-37.3779Q11.8164,-33.1055 11.4258,-24.8047L41.0156,-24.8047Q40.1367,-41.6504 26.3672,-41.6504Z"></path><path transform="translate(816 200)" d="M52.5391,-21.1426Q52.5391,-8.83789 46.8262,-1.97754Q41.1133,4.88281 30.7617,4.88281Q24.9023,4.88281 20.9229,2.51465Q16.9434,0.146484 14.2578,-4.83398L14.0625,-4.83398Q14.1113,-2.44141 13.623,3.90625L7.71484,3.90625Q8.05664,-1.2207 8.05664,-6.5918L8.05664,-67.041L14.2578,-67.041L14.2578,-43.0664Q14.2578,-41.5039 14.209,-39.917Q14.1602,-38.3301 14.0625,-36.7676L14.2578,-36.7676Q17.4805,-42.3828 21.6064,-44.5801Q25.7324,-46.7773 31.7871,-46.7773Q41.6992,-46.7773 47.1191,-40.0146Q52.5391,-33.252 52.5391,-21.1426ZM46.1426,-21.1426Q46.1426,-31.25 42.2363,-36.4502Q38.3301,-41.6504 30.7617,-41.6504Q22.5098,-41.6504 18.335,-36.3037Q14.1602,-30.957 14.1602,-20.752Q14.1602,-10.6445 18.2617,-5.44434Q22.3633,-0.244141 30.3711,-0.244141Q38.2324,-0.244141 42.1875,-5.59082Q46.1426,-10.9375 46.1426,-21.1426Z"></path></svg>